<svg xmlns="http://www.w3.org/2000/svg" version="1.1" xmlns:xlink="http://www.w3.org/1999/xlink" xmlns:svgjs="http://svgjs.dev/svgjs" width="2000" height="303" viewBox="0 0 2000 303"><g transform="matrix(1,0,0,1,-1.212120134802717,0.27189584470002615)"><svg viewBox="0 0 396 60" data-background-color="#ffffff" preserveAspectRatio="xMidYMid meet" height="303" width="2000" xmlns="http://www.w3.org/2000/svg" xmlns:xlink="http://www.w3.org/1999/xlink"><g id="tight-bounds" transform="matrix(1,0,0,1,0.2399998994347925,-0.05384076132673954)"><svg viewBox="0 0 395.52 60.10767903740579" height="60.10767903740579" width="395.52"><g><svg viewBox="0 0 490.1313542119126 74.48588725004726" height="60.10767903740579" width="395.52"><g><rect width="4.860502302203258" height="54.16665462105461" x="408.24382801623887" y="10.159616314496322" fill="#000000" opacity="1" stroke-width="0" stroke="transparent" fill-opacity="1" class="rect-o-0" data-fill-palette-color="primary" rx="1%" id="o-0" data-palette-color="#77d4fc"></rect></g><g transform="matrix(1,0,0,1,0,10.294359236439242)"><svg viewBox="0 0 395.52 53.89716877716877" height="53.89716877716877" width="395.52"><g id="textblocktransform"><svg viewBox="0 0 395.52 53.89716877716877" height="53.89716877716877" width="395.52" id="textblock"><g><svg viewBox="0 0 395.52 53.89716877716877" height="53.89716877716877" width="395.52"><g transform="matrix(1,0,0,1,0,0)"><svg width="395.52" viewBox="3.9000000953674316 -35.5 269.9800109863281 36.04999923706055" height="53.89716877716877" data-palette-color="#77d4fc"><g class="undefined-text-0" data-fill-palette-color="primary" id="text-0"><path d="M27.1 0L27.1-24.25 18.95 0 15.55 0 7.5-24.25 7.5 0 3.9 0 3.9-35 7.5-35 17.25-6.55 27.1-35 30.7-35 30.7 0 27.1 0ZM56.5 0L53.05-11.3 42.65-11.3 39.35 0 35.45 0 45.75-35 49.9-35 60.55 0 56.5 0ZM47.8-29.2L43.6-15 52.15-15 47.8-29.2ZM81.85 0L81.25-1.55Q78.85 0.5 74.85 0.5L74.85 0.5Q72.05 0.5 69.65-0.55 67.25-1.6 65.77-3.85 64.3-6.1 64.3-9.45L64.3-9.45 64.3-25.15Q64.3-28.65 65.42-30.78 66.55-32.9 68.65-34.2L68.65-34.2Q70.85-35.45 74.05-35.45L74.05-35.45Q77.95-35.45 81.1-33.8L81.1-33.8 80.05-31Q77.35-32 74.9-32L74.9-32Q67.9-32 67.9-25.6L67.9-25.6 67.9-9.35Q67.9-6.3 69.8-4.67 71.7-3.05 74.8-3.05L74.8-3.05Q77.7-3.05 79.52-4.7 81.35-6.35 81.35-9.3L81.35-9.3 81.35-11.5 78.2-11.5 77-15 84.85-15 84.85 0 81.85 0ZM94.39 0L94.39-31.6 91.09-31.7 91.09-35 97.99-35 97.99 0 94.39 0ZM123.19-1.15Q118.74 0.5 114.89 0.5L114.89 0.5Q110.54 0.5 107.84-1.8 105.14-4.1 105.14-9.15L105.14-9.15 105.14-25.2Q105.14-29 106.22-30.95 107.29-32.9 109.49-34.25L109.49-34.25Q111.69-35.5 114.89-35.5L114.89-35.5Q118.79-35.5 121.94-33.85L121.94-33.85 120.89-31Q118.19-32 115.64-32L115.64-32Q112.89-32 110.82-30.6 108.74-29.2 108.74-25.65L108.74-25.65 108.74-9.25Q108.74-6.1 110.49-4.55 112.24-3 115.44-3L115.44-3Q118.54-3 122.49-4.35L122.49-4.35 123.19-1.15Z" fill="#000000" data-fill-palette-color="primary"></path><path d="M129.69 0L129.69-31.6 126.39-31.7 126.39-35 133.29-35 133.29 0 129.69 0ZM164.24 0L164.24-24.25 156.09 0 152.69 0 144.64-24.25 144.64 0 141.04 0 141.04-35 144.64-35 154.39-6.55 164.24-35 167.84-35 167.84 0 164.24 0ZM193.64 0L190.19-11.3 179.79-11.3 176.49 0 172.59 0 182.89-35 187.04-35 197.69 0 193.64 0ZM184.94-29.2L180.74-15 189.29-15 184.94-29.2ZM218.98 0L218.38-1.55Q215.98 0.5 211.98 0.5L211.98 0.5Q209.18 0.5 206.78-0.55 204.38-1.6 202.91-3.85 201.43-6.1 201.43-9.45L201.43-9.45 201.43-25.15Q201.43-28.65 202.56-30.78 203.68-32.9 205.78-34.2L205.78-34.2Q207.98-35.45 211.18-35.45L211.18-35.45Q215.08-35.45 218.23-33.8L218.23-33.8 217.18-31Q214.48-32 212.03-32L212.03-32Q205.03-32 205.03-25.6L205.03-25.6 205.03-9.35Q205.03-6.3 206.93-4.67 208.83-3.05 211.93-3.05L211.93-3.05Q214.83-3.05 216.66-4.7 218.48-6.35 218.48-9.3L218.48-9.3 218.48-11.5 215.33-11.5 214.13-15 221.98-15 221.98 0 218.98 0ZM228.93 0L228.93-35 245.63-35 245.63-31.55 232.53-31.55 232.53-20.65 241.28-20.65 240.13-17.15 232.53-17.15 232.53-3.25 245.53-3.25 245.53 0 228.93 0ZM253.88-9.15Q254.03-7.55 255.05-6.13 256.08-4.7 257.83-3.83 259.58-2.95 261.88-2.95L261.88-2.95Q265.43-2.95 267.7-4.58 269.98-6.2 269.98-9.3L269.98-9.3Q269.98-11.5 268.78-12.98 267.58-14.45 265.83-15.33 264.08-16.2 261.03-17.35L261.03-17.35Q257.78-18.55 255.78-19.58 253.78-20.6 252.4-22.38 251.03-24.15 251.03-26.9L251.03-26.9Q251.03-29.1 252.28-31.08 253.53-33.05 256.05-34.27 258.58-35.5 262.28-35.5L262.28-35.5Q264.73-35.5 266.33-35.15 267.93-34.8 269.58-34L269.58-34 268.48-30.6Q265.38-31.95 262.38-31.95L262.38-31.95Q258.83-31.95 256.8-30.53 254.78-29.1 254.83-26.65L254.83-26.65Q254.83-25.15 255.88-24.08 256.93-23 258.48-22.25 260.03-21.5 262.68-20.55L262.68-20.55Q266.23-19.25 268.48-18.07 270.73-16.9 272.3-14.83 273.88-12.75 273.88-9.65L273.88-9.65Q273.88-5.05 270.95-2.25 268.03 0.55 261.93 0.55L261.93 0.55Q258.23 0.55 255.6-0.83 252.98-2.2 251.6-4.38 250.23-6.55 250.13-8.9L250.13-8.9 253.88-9.15Z" fill="#000000" data-fill-palette-color="secondary"></path></g></svg></g></svg></g></svg></g></svg></g><g transform="matrix(1,0,0,1,425.828158334681,0)"><svg viewBox="0 0 64.30319587723159 74.48588725004726" height="74.48588725004726" width="64.30319587723159"><g><svg xmlns="http://www.w3.org/2000/svg" xmlns:xlink="http://www.w3.org/1999/xlink" version="1.1" x="0" y="0" viewBox="9.63800048828125 3.246999979019165 80.7239990234375 93.50699615478516" enable-background="new 0 0 100 100" xml:space="preserve" height="74.48588725004726" width="64.30319587723159" class="icon-icon-0" data-fill-palette-color="accent" id="icon-0"><g fill="#4b91f1" data-fill-palette-color="accent"><g fill="#4b91f1" data-fill-palette-color="accent"><polygon points="36.703,11.011 9.638,26.636 9.638,38.757 36.703,23.131 63.767,38.757 63.767,26.636   " fill="#000000" data-fill-palette-color="accent"></polygon></g><g fill="#4b91f1" data-fill-palette-color="accent"><polygon points="63.298,89.092 36.233,73.467 36.233,61.348 63.298,76.973 90.362,61.348 90.362,73.467   " fill="#000000" data-fill-palette-color="accent"></polygon></g><g fill="#4b91f1" data-fill-palette-color="accent"><polygon points="9.638,42.012 36.703,26.386 47.198,32.446 20.134,48.072 20.134,79.324 9.638,73.264   " fill="#000000" data-fill-palette-color="accent"></polygon></g><g fill="#4b91f1" data-fill-palette-color="accent"><polygon points="77.083,18.872 50.018,3.247 39.522,9.307 66.586,24.932 66.586,56.184 77.083,50.124   " fill="#000000" data-fill-palette-color="accent"></polygon></g><g fill="#4b91f1" data-fill-palette-color="accent"><polygon points="23.01,81.127 23.011,49.876 33.507,43.816 33.507,75.068 60.571,90.693 50.075,96.754   " fill="#000000" data-fill-palette-color="accent"></polygon></g><g fill="#4b91f1" data-fill-palette-color="accent"><polygon points="90.362,58.092 90.362,26.84 79.866,20.78 79.866,52.031 52.802,67.658 63.298,73.719   " fill="#000000" data-fill-palette-color="accent"></polygon></g></g></svg></g></svg></g></svg></g><defs></defs></svg><rect width="395.52" height="60.10767903740579" fill="none" stroke="none" visibility="hidden"></rect></g></svg></g></svg>